<?xml version="1.0" encoding="UTF-8"?>
<svg xmlns="http://www.w3.org/2000/svg" xmlns:xlink="http://www.w3.org/1999/xlink" width="20pt" height="20pt" viewBox="0 0 20 20" version="1.1">
<defs>
<linearGradient id="linear0" gradientUnits="userSpaceOnUse" x1="-40.9231" y1="621.7793" x2="-30.6013" y2="632.1001" gradientTransform="matrix(0.836818,0,0,-0.836818,39.932845,539.121869)">
<stop offset="0" style="stop-color:rgb(20.392157%,80.392157%,98.039216%);stop-opacity:1;"/>
<stop offset="1" style="stop-color:rgb(90.980392%,85.098039%,94.509804%);stop-opacity:1;"/>
</linearGradient>
</defs>
<g id="surface1">
<path style=" stroke:none;fill-rule:nonzero;fill:rgb(80%,94.901961%,99.607843%);fill-opacity:1;" d="M 10.667969 0.25 C 10.335938 -0.0820312 9.75 -0.0820312 9.414062 0.25 C 8.660156 1.085938 2.46875 8.621094 2.46875 12.46875 C 2.46875 16.652344 5.816406 20 10 20 C 14.183594 20 17.53125 16.652344 17.53125 12.46875 C 17.53125 8.621094 11.339844 1.085938 10.667969 0.25 Z M 10.667969 0.25 "/>
<path style=" stroke:none;fill-rule:nonzero;fill:rgb(70.196078%,92.54902%,99.215686%);fill-opacity:1;" d="M 16.609375 9.203125 C 15.355469 9.539062 15.1875 10.796875 13.597656 10.796875 C 11.757812 10.796875 11.757812 9.121094 10 9.121094 C 8.242188 9.121094 8.160156 10.796875 6.402344 10.796875 C 4.8125 10.796875 4.644531 9.539062 3.390625 9.203125 C 2.886719 10.210938 2.550781 11.296875 2.46875 12.46875 C 2.46875 12.71875 2.46875 13.054688 2.550781 13.304688 C 2.636719 13.304688 2.71875 13.304688 2.804688 13.304688 C 4.644531 13.304688 4.644531 14.980469 6.402344 14.980469 C 8.160156 14.980469 8.242188 13.304688 10 13.304688 C 11.757812 13.304688 11.839844 14.980469 13.597656 14.980469 C 15.355469 14.980469 15.4375 13.304688 17.195312 13.304688 C 17.28125 13.304688 17.363281 13.304688 17.449219 13.304688 C 17.449219 13.054688 17.53125 12.71875 17.53125 12.46875 C 17.449219 11.296875 17.113281 10.210938 16.609375 9.203125 Z M 16.609375 9.203125 "/>
<path style=" stroke:none;fill-rule:nonzero;fill:url(#linear0);" d="M 13.597656 14.980469 C 11.757812 14.980469 11.757812 13.304688 10 13.304688 C 8.242188 13.304688 8.160156 14.980469 6.402344 14.980469 C 4.644531 14.980469 4.5625 13.304688 2.804688 13.304688 C 2.71875 13.304688 2.636719 13.304688 2.550781 13.304688 C 3.054688 17.40625 6.738281 20.417969 10.921875 19.917969 C 14.433594 19.496094 17.113281 16.738281 17.53125 13.304688 C 17.449219 13.304688 17.363281 13.304688 17.28125 13.304688 C 15.4375 13.304688 15.4375 14.980469 13.597656 14.980469 Z M 13.597656 14.980469 "/>
</g>
</svg>
